#N canvas 186 221 560 627 10;
#X declare -stdpath Fraise;
#X declare -lib iemlib;
#X declare -stdpath moonlib;
#X declare -stdpath hcs;
#X declare -stdpath ggee;
#X declare -stdpath zexy;
#X declare -lib zexy;
#N canvas 322 108 952 498 seq 0;
#X obj 52 166 seq/ramp conduite fenetre;
#X obj 52 186 s dimmer3;
#X obj 53 33 seq/ramp conduite abatjour1;
#X obj 53 78 seq/ramp conduite abatjour2;
#X obj 52 126 seq/ramp conduite horloge;
#X obj 52 146 s dimmer2;
#X obj 53 100 s dimmer4;
#X obj 53 55 s dimmer1;
#X obj 239 33 seq/ramp conduite ventilo;
#X obj 239 55 s ventilo;
#X obj 239 162 s horloge-carillon;
#X obj 239 140 seq/ramp conduite carillon;
#X obj 239 191 seq/ramp conduite gong;
#X obj 239 213 s horloge-gong;
#X obj 53 282 r seq-conduite-line;
#X obj 28 287 tgl 15 0 empty empty empty 17 7 0 10 -262144 -1 -1 0
1;
#X obj 53 336 s phone-sonne;
#X obj 148 434 s horloge-aiguilles;
#X obj 148 331 unpack f f;
#X obj 183 358 * 1000;
#X obj 183 380 del;
#X msg 183 402 0;
#X obj 277 448 s seq-conduite-line;
#X msg 298 360 horloge \$1 5;
#X obj 303 328 tgl 15 0 empty empty empty 17 7 0 10 -262144 -1 -1 0
1;
#X msg 277 423 horloge 0 5;
#X obj 239 350 * 1000;
#X obj 239 372 del;
#X msg 239 394 0;
#X obj 239 328 + 3;
#X obj 53 306 route phone-sonne aiguilles;
#X obj 445 282 r seq-conduite-line;
#X obj 549 342 s telephone;
#X obj 445 342 s horloge-minuit;
#X obj 624 342 s horloge-minuit-;
#X obj 554 252 s seq-conduite-line;
#X msg 528 165 abatjour2 1 10;
#X msg 563 198 abatjour2 0 5;
#X obj 740 342 t b a;
#X msg 748 312 20 5;
#X obj 445 306 route minuit telephone minuit- horlogeGoto;
#X obj 740 369 horlogeGoto;
#X msg 682 198 horlogeGoto 20 5;
#X msg 566 59 horlogeGoto 0 0;
#X text 666 57 va a minuit;
#X msg 592 88 aiguilles 20 5;
#X text 683 87 va a 1h10;
#X connect 0 0 1 0;
#X connect 2 0 7 0;
#X connect 3 0 6 0;
#X connect 4 0 5 0;
#X connect 8 0 9 0;
#X connect 11 0 10 0;
#X connect 12 0 13 0;
#X connect 14 0 30 0;
#X connect 15 0 16 0;
#X connect 18 0 17 0;
#X connect 18 1 19 0;
#X connect 18 1 29 0;
#X connect 19 0 20 0;
#X connect 20 0 21 0;
#X connect 21 0 17 0;
#X connect 23 0 22 0;
#X connect 24 0 23 0;
#X connect 25 0 22 0;
#X connect 26 0 27 0;
#X connect 27 0 28 0;
#X connect 28 0 25 0;
#X connect 29 0 26 0;
#X connect 30 0 16 0;
#X connect 30 1 18 0;
#X connect 31 0 40 0;
#X connect 36 0 35 0;
#X connect 37 0 35 0;
#X connect 38 0 41 0;
#X connect 38 1 41 1;
#X connect 39 0 38 0;
#X connect 40 0 33 0;
#X connect 40 1 32 0;
#X connect 40 2 34 0;
#X connect 40 3 38 0;
#X connect 42 0 35 0;
#X connect 43 0 35 0;
#X connect 45 0 35 0;
#X restore 51 114 pd seq;
#N canvas 476 133 875 765 telephone 0;
#X obj 538 196 readsf~;
#X msg 672 542 open wavs/Son_téléphone_Régina.wav \, 1;
#X msg 653 517 open wavs/son_telephone_Madelain.wav \, 1;
#X obj 539 253 iemlib/hp4_butt~ 400;
#X obj 540 275 iemlib/lp4_butt~ 4000;
#X obj 538 8 r phone-play;
#X obj 653 457 sel 1 2;
#X obj 758 17 r phone-stop;
#X msg 758 38 0;
#X obj 93 83 bng 15 250 50 0 empty empty empty 17 7 0 10 -262144 -1
-1;
#X obj 93 147 bng 15 250 50 0 empty empty empty 17 7 0 10 -258113 -1
-1;
#X obj 180 149 bng 15 250 50 0 empty empty empty 17 7 0 10 -4034 -1
-1;
#X obj 93 292 bng 15 250 50 0 empty empty empty 17 7 0 10 -258113 -1
-1;
#X obj 180 290 bng 15 250 50 0 empty empty empty 17 7 0 10 -4034 -1
-1;
#X obj 93 224 bng 15 250 50 0 empty empty empty 17 7 0 10 -262144 -1
-1;
#X obj 753 175 route float;
#X obj 538 159 t a;
#X obj 711 250 noise~;
#X obj 712 322 +~ 440;
#X obj 767 253 r phone-decroche;
#X obj 753 197 == 0;
#X obj 767 275 sel 0 1;
#X msg 786 326 1;
#X msg 831 280 stop;
#X msg 758 304 0;
#X obj 713 365 *~ 0;
#X obj 712 343 osc~;
#X obj 93 104 phonecall 11000;
#X obj 93 170 phonewait 7000;
#X obj 93 245 phonecall 14000;
#X obj 257 288 s phone-play;
#X msg 240 262 1;
#X obj 577 219 s phone-play-end;
#X obj 93 35 r telephone;
#X obj 93 57 sel 1 2;
#X obj 93 321 phonewait 7000;
#X obj 559 221 bng 15 250 50 0 empty empty empty 17 7 0 10 -262144
-1 -1;
#X obj 303 46 r phone-decroche;
#X obj 303 70 sel 0;
#X obj 330 135 r phone-play-end;
#X obj 303 90 t b b;
#X obj 330 112 s phone-stop;
#X obj 303 163 b;
#X obj 207 288 spigot;
#X msg 270 261 0;
#X obj 92 405 s conduite-SKIP;
#X obj 340 172 r conduite-RESET;
#X obj 378 218 s phone-stop;
#X obj 369 241 s phonecall-reset;
#X obj 341 269 bng 15 250 50 0 empty empty empty 17 7 0 10 -262144
-1 -1;
#X obj 341 333 bng 15 250 50 0 empty empty empty 17 7 0 10 -258113
-1 -1;
#X obj 428 335 bng 15 250 50 0 empty empty empty 17 7 0 10 -4034 -1
-1;
#X obj 341 468 bng 15 250 50 0 empty empty empty 17 7 0 10 -258113
-1 -1;
#X obj 428 466 bng 15 250 50 0 empty empty empty 17 7 0 10 -4034 -1
-1;
#X obj 341 400 bng 15 250 50 0 empty empty empty 17 7 0 10 -262144
-1 -1;
#X obj 341 290 phonecall 11000;
#X obj 341 356 phonewait 7000;
#X obj 341 421 phonecall 14000;
#X obj 570 630 s phone-play;
#X msg 537 572 1;
#X obj 341 624 phonewait 7000;
#X obj 504 598 spigot;
#X msg 567 571 0;
#X obj 341 669 s conduite-SKIP;
#X obj 341 599 bng 15 250 50 0 empty empty empty 17 7 0 10 -258113
-1 -1;
#X obj 428 597 bng 15 250 50 0 empty empty empty 17 7 0 10 -4034 -1
-1;
#X obj 341 531 bng 15 250 50 0 empty empty empty 17 7 0 10 -262144
-1 -1;
#X obj 341 487 phonewait 7000;
#X msg 570 606 2;
#X obj 341 552 phonecall 11000;
#X obj 207 318 bng 15 250 50 0 empty empty empty 17 7 0 10 -262144
-1 -1;
#X obj 507 622 bng 15 250 50 0 empty empty empty 17 7 0 10 -262144
-1 -1;
#X obj 712 274 lop~ 80;
#X obj 68 367 bng 15 250 50 0 empty empty empty 17 7 0 10 -262144 -1
-1;
#X obj 434 149 r conduite-SKIP;
#X obj 332 198 b;
#X obj 365 191 r conduite-SKIP;
#X obj 332 156 bng 15 250 50 0 empty empty empty 17 7 0 10 -262144
-1 -1;
#X msg 598 193 0;
#X obj 713 387 *~ 1;
#X obj 753 221 * 0.2;
#X obj 712 300 *~ 150;
#X obj 786 306 del 400;
#X obj 583 37 r datasdir;
#X msg 482 15 1;
#X msg 484 43 2;
#X obj 538 59 pack f s;
#X obj 656 134 print;
#X msg 538 83 open \$2/telephone/Telephone\$1.wav \, 1;
#X obj 93 366 spigot 1;
#X obj 162 368 tgl 15 0 empty empty empty 17 7 0 10 -262144 -1 -1 1
1;
#X obj 699 430 dac~ 1;
#X connect 0 0 3 0;
#X connect 0 1 32 0;
#X connect 0 1 36 0;
#X connect 0 1 78 0;
#X connect 3 0 4 0;
#X connect 4 0 91 0;
#X connect 5 0 86 0;
#X connect 6 0 2 0;
#X connect 6 1 1 0;
#X connect 7 0 8 0;
#X connect 8 0 16 0;
#X connect 9 0 27 0;
#X connect 10 0 28 0;
#X connect 10 0 44 0;
#X connect 11 0 31 0;
#X connect 12 0 35 0;
#X connect 12 0 44 0;
#X connect 13 0 31 0;
#X connect 14 0 29 0;
#X connect 15 0 20 0;
#X connect 16 0 0 0;
#X connect 16 0 15 0;
#X connect 17 0 72 0;
#X connect 18 0 26 0;
#X connect 19 0 21 0;
#X connect 20 0 80 0;
#X connect 21 0 23 0;
#X connect 21 0 24 0;
#X connect 21 1 82 0;
#X connect 22 0 25 1;
#X connect 23 0 82 0;
#X connect 24 0 25 1;
#X connect 25 0 79 0;
#X connect 26 0 25 0;
#X connect 27 0 10 0;
#X connect 27 1 11 0;
#X connect 28 0 14 0;
#X connect 29 0 12 0;
#X connect 29 1 13 0;
#X connect 31 0 30 0;
#X connect 31 0 43 1;
#X connect 33 0 34 0;
#X connect 34 0 9 0;
#X connect 34 1 49 0;
#X connect 35 0 73 0;
#X connect 35 0 89 0;
#X connect 37 0 38 0;
#X connect 38 0 40 0;
#X connect 39 0 42 0;
#X connect 40 0 42 0;
#X connect 40 1 41 0;
#X connect 42 0 43 0;
#X connect 42 0 61 0;
#X connect 43 0 44 0;
#X connect 43 0 35 0;
#X connect 43 0 70 0;
#X connect 44 0 43 1;
#X connect 46 0 75 0;
#X connect 49 0 55 0;
#X connect 50 0 56 0;
#X connect 50 0 62 0;
#X connect 51 0 59 0;
#X connect 52 0 67 0;
#X connect 52 0 62 0;
#X connect 53 0 59 0;
#X connect 54 0 57 0;
#X connect 55 0 50 0;
#X connect 55 1 51 0;
#X connect 56 0 54 0;
#X connect 57 0 52 0;
#X connect 57 1 53 0;
#X connect 59 0 61 1;
#X connect 59 0 68 0;
#X connect 60 0 63 0;
#X connect 61 0 62 0;
#X connect 61 0 60 0;
#X connect 61 0 71 0;
#X connect 62 0 61 1;
#X connect 64 0 60 0;
#X connect 64 0 62 0;
#X connect 65 0 59 0;
#X connect 66 0 69 0;
#X connect 67 0 66 0;
#X connect 68 0 58 0;
#X connect 69 0 64 0;
#X connect 69 1 65 0;
#X connect 72 0 81 0;
#X connect 75 0 47 0;
#X connect 75 0 48 0;
#X connect 75 0 44 0;
#X connect 75 0 62 0;
#X connect 76 0 75 0;
#X connect 77 0 75 0;
#X connect 78 0 15 0;
#X connect 79 0 91 0;
#X connect 80 0 79 1;
#X connect 81 0 18 0;
#X connect 82 0 22 0;
#X connect 83 0 86 1;
#X connect 84 0 86 0;
#X connect 85 0 86 0;
#X connect 86 0 88 0;
#X connect 88 0 16 0;
#X connect 88 0 87 0;
#X connect 89 0 45 0;
#X connect 90 0 89 1;
#X restore 51 139 pd telephone;
#X obj 53 27 loadbang;
#X msg 53 50 \; pd dsp 1;
#X obj 53 305 seq/main conduite;
#X obj 237 33 tgl 50 0 phone-decroche phone-decroche phone-decroche
0 -8 0 10 -4034 -1 -1 0 1;
#X obj 169 33 tgl 50 0 mouvement mouvement mouvement 0 -8 0 10 -257985
-1 -1 0 1;
#N canvas 406 290 871 397 son 0;
#X obj 32 16 bng 15 250 50 0 empty empty empty 17 7 0 10 -262144 -1
-1;
#X obj 51 13 loadbang;
#X obj 32 84 s datasdir;
#X obj 192 11 r seq-conduite-line;
#X obj 192 34 route son film tv;
#X obj 133 238 readsf~ 8;
#X obj 202 240 bng 15 250 50 0 empty empty empty 17 7 0 10 -262144
-1 -1;
#X obj 133 139 symbol;
#X obj 133 160 pack s s;
#X obj 178 138 r datasdir;
#X obj 385 137 symbol;
#X obj 385 158 pack s s;
#X obj 430 136 r datasdir;
#X obj 652 136 symbol;
#X obj 652 157 pack s s;
#X obj 697 135 r datasdir;
#X obj 356 25 r son-stop;
#X msg 356 46 0;
#X obj 65 286 *~;
#X obj 88 286 *~;
#X obj 111 286 *~;
#X obj 134 286 *~;
#X obj 157 286 *~;
#X obj 180 286 *~;
#X obj 203 286 *~;
#X obj 226 286 *~;
#X obj 385 207 t a;
#X obj 652 206 t a;
#X obj 385 229 readsf~ 8;
#X obj 454 231 bng 15 250 50 0 empty empty empty 17 7 0 10 -262144
-1 -1;
#X obj 317 277 *~;
#X obj 340 277 *~;
#X obj 363 277 *~;
#X obj 386 277 *~;
#X obj 409 277 *~;
#X obj 432 277 *~;
#X obj 455 277 *~;
#X obj 478 277 *~;
#X obj 721 233 bng 15 250 50 0 empty empty empty 17 7 0 10 -262144
-1 -1;
#X obj 651 268 *~;
#X obj 475 208 r film-vol;
#X obj 475 230 pow 2;
#X obj 223 218 r son-vol;
#X obj 223 240 pow 2;
#X obj 742 211 r tv-vol;
#X obj 742 232 pow 2;
#X obj 32 40 getdir;
#X msg 32 62 symbol \$1/../LaChambreDatas;
#X msg 385 181 open \$2/\$1-écran.wav \, 1;
#X msg 652 180 open \$2/\$1-tv.wav \, 1;
#X msg 133 183 open \$2/\$1-son.wav \, 1;
#X obj 89 324 dac~ 3 4 5 6 7 8 2 1;
#X obj 341 315 dac~ 3 4 5 6 7 8 2 1;
#X obj 651 297 dac~ 2;
#X obj 652 231 readsf~ 1;
#X obj 330 110 route auto;
#X connect 0 0 46 0;
#X connect 1 0 46 0;
#X connect 3 0 4 0;
#X connect 4 0 7 0;
#X connect 4 1 55 0;
#X connect 4 2 13 0;
#X connect 5 0 18 0;
#X connect 5 1 19 0;
#X connect 5 2 20 0;
#X connect 5 3 21 0;
#X connect 5 4 22 0;
#X connect 5 5 23 0;
#X connect 5 6 24 0;
#X connect 5 7 25 0;
#X connect 5 8 6 0;
#X connect 7 0 8 0;
#X connect 8 0 50 0;
#X connect 9 0 8 1;
#X connect 10 0 11 0;
#X connect 11 0 48 0;
#X connect 12 0 11 1;
#X connect 13 0 14 0;
#X connect 14 0 49 0;
#X connect 15 0 14 1;
#X connect 16 0 17 0;
#X connect 17 0 5 0;
#X connect 17 0 26 0;
#X connect 17 0 27 0;
#X connect 18 0 51 0;
#X connect 19 0 51 1;
#X connect 20 0 51 2;
#X connect 21 0 51 3;
#X connect 22 0 51 4;
#X connect 23 0 51 5;
#X connect 24 0 51 6;
#X connect 25 0 51 7;
#X connect 26 0 28 0;
#X connect 27 0 54 0;
#X connect 28 0 30 0;
#X connect 28 1 31 0;
#X connect 28 2 32 0;
#X connect 28 3 33 0;
#X connect 28 4 34 0;
#X connect 28 5 35 0;
#X connect 28 6 36 0;
#X connect 28 7 37 0;
#X connect 28 8 29 0;
#X connect 30 0 52 0;
#X connect 31 0 52 1;
#X connect 32 0 52 2;
#X connect 33 0 52 3;
#X connect 34 0 52 4;
#X connect 35 0 52 5;
#X connect 36 0 52 6;
#X connect 37 0 52 7;
#X connect 39 0 53 0;
#X connect 40 0 41 0;
#X connect 41 0 30 1;
#X connect 41 0 31 1;
#X connect 41 0 32 1;
#X connect 41 0 33 1;
#X connect 41 0 34 1;
#X connect 41 0 35 1;
#X connect 41 0 36 1;
#X connect 41 0 37 1;
#X connect 42 0 43 0;
#X connect 43 0 18 1;
#X connect 43 0 19 1;
#X connect 43 0 20 1;
#X connect 43 0 21 1;
#X connect 43 0 22 1;
#X connect 43 0 23 1;
#X connect 43 0 24 1;
#X connect 43 0 25 1;
#X connect 44 0 45 0;
#X connect 45 0 39 1;
#X connect 46 0 47 0;
#X connect 47 0 2 0;
#X connect 48 0 26 0;
#X connect 49 0 27 0;
#X connect 50 0 5 0;
#X connect 54 0 39 0;
#X connect 55 1 10 0;
#X restore 52 162 pd son;
#X obj 105 162 bng 15 250 50 0 son-stop empty son-stop 17 7 0 10 -258113
-1 -1;
#X obj 332 38 hsl 128 15 0 1 0 1 son-vol son-vol son-vol -2 -8 0 10
-261234 -1 -1 12700 1;
#X obj 331 70 hsl 128 15 0 1 0 1 film-vol film-vol film-vol -2 -8 0
10 -261234 -1 -1 12700 1;
#X obj 331 102 hsl 128 15 0 1 0 1 tv-vol tv-vol tv-vol -2 -8 0 10 -261234
-1 -1 12700 1;
#N canvas 65 117 450 300 attente 0;
#X obj 162 38 r conduite-PART;
#X obj 162 61 sel Z;
#X msg 162 118 1;
#X msg 191 119 0;
#X obj 162 141 tgl 15 0 empty empty empty 17 7 0 10 -262144 -1 -1 0
1;
#X obj 79 160 spigot;
#X obj 79 41 r mouvement;
#X obj 79 62 sel 1;
#X obj 79 183 s conduite-SKIP;
#X obj 269 37 r conduite-STOP;
#X obj 162 84 del 100;
#X connect 0 0 1 0;
#X connect 1 0 10 0;
#X connect 1 1 3 0;
#X connect 2 0 4 0;
#X connect 3 0 4 0;
#X connect 4 0 5 1;
#X connect 5 0 8 0;
#X connect 6 0 7 0;
#X connect 7 0 5 0;
#X connect 9 0 3 0;
#X connect 10 0 2 0;
#X restore 136 139 pd attente;
#X obj 53 193 loadbang;
#N canvas 47 475 565 291 pofmains 0;
#X obj 140 115 ggee/getdir;
#X obj 140 95 bng 15 250 50 0 empty empty empty 17 7 0 10 -262144 -1
-1;
#X obj 140 67 loadbang;
#X obj 140 181 ggee/shell;
#X msg 140 159 nohup bash -c "DISPLAY=:0.0 && pd -noaudio -open \$1"
&;
#X msg 140 136 symbol \$1/pofmainTV.pd \, symbol \$1/pofmain.pd;
#X obj 243 73 metro 30000;
#X obj 243 52 tgl 15 0 empty empty empty 17 7 0 10 -262144 -1 -1 1
1;
#X obj 243 28 loadbang;
#X msg 300 38 nohup xset -d :0 dpms force off -dpms &;
#X msg 243 98 nohup xset -d :0 dpms force on -dpms &;
#X connect 0 0 5 0;
#X connect 1 0 0 0;
#X connect 4 0 3 0;
#X connect 5 0 4 0;
#X connect 6 0 10 0;
#X connect 7 0 6 0;
#X connect 8 0 7 0;
#X connect 10 0 3 0;
#X restore 160 115 pd pofmains;
#X obj 115 271 bng 15 250 50 0 conduite-RESET empty RESET 17 7 0 10
-260097 -1 -1;
#X obj 53 273 t b b;
#X obj 35 188 bng 15 250 50 0 empty empty empty 17 7 0 10 -262144 -1
-1;
#X obj 53 225 del 10000;
#X obj 51 88 FRAISE;
#N canvas 65 161 1215 609 FILMS 0;
#X obj 191 29 r seq-conduite-line;
#X obj 191 135 t b a b;
#X obj 210 214 netsend;
#X obj 191 111 list trim;
#X obj 406 161 t b a b;
#X obj 425 240 netsend;
#X obj 406 137 list trim;
#X obj 191 88 list prepend send tv;
#X obj 406 115 list prepend send film;
#X obj 210 236 tgl 15 0 empty empty empty 17 7 0 10 -262144 -1 -1 1
1;
#X obj 422 261 tgl 15 0 empty empty empty 17 7 0 10 -262144 -1 -1 1
1;
#X obj 60 154 tgl 15 0 empty empty empty 17 7 0 10 -262144 -1 -1 0
1;
#X msg 59 177 send fullscreen \$1;
#X obj 498 59 tgl 15 0 empty empty empty 17 7 0 10 -262144 -1 -1 0
1;
#X obj 550 2 bng 15 250 50 0 empty empty empty 17 7 0 10 -262144 -1
-1;
#X obj 550 30 del 2000;
#X msg 547 55 0;
#X msg 515 36 1;
#X msg 59 236 send translate y \$1;
#X floatatom 61 211 5 0 0 0 - - -, f 5;
#X msg 60 134 1;
#X msg -23 249 send goto \$1;
#X floatatom -23 216 5 0 0 0 - - -, f 5;
#X msg 4 183 0;
#X msg -24 184 100;
#X msg -52 186 200;
#X obj 47 405 list trim;
#X obj 47 382 list prepend send win;
#X msg -53 352 pos 1920 1000;
#X msg 46 355 pos 3000 1000 \, window 800 600 1;
#X msg 473 88 send fullscreen \$1;
#X obj 981 568 s seq-conduite-line;
#X msg 981 546 tv fullscreen 1 \, film fullscreen 1;
#X msg 367 70 1;
#X obj 370 20 r conduite-RESET;
#X obj 369 43 del 2000;
#X obj 191 53 route tv film;
#X msg 49 76 send ctl speed 0;
#X msg 42 47 send ctl goto \$1;
#X floatatom 42 22 5 0 0 0 - - -, f 5;
#X msg 303 305 connect localhost 61524;
#X msg 284 327 disconnect;
#X msg 284 164 1;
#X msg 250 164 0;
#X msg 284 215 stop;
#X obj 319 214 del 200;
#X msg 319 236 0;
#X obj 284 190 sel 1 0;
#X msg 284 237 1;
#X obj 284 259 change;
#X obj 284 281 sel 0 1;
#X obj 284 349 t a;
#X obj 685 39 r seq-conduite-line;
#X obj 685 61 route tv film;
#X msg 725 113 0;
#X msg 753 113 1;
#X msg 1049 98 0;
#X msg 1077 98 1;
#X obj 725 188 metro 40;
#X obj 725 135 change;
#X obj 1049 120 change;
#X obj 725 157 t f f;
#X obj 770 144 sel 1;
#X obj 725 210 i;
#X obj 755 209 + 1;
#X msg 770 165 0;
#X msg 725 260 send ctl goto \$1;
#X obj 725 282 s toTV;
#X obj 124 28 r toTV;
#X obj 332 109 r toFILM;
#X msg 520 299 disconnect;
#X msg 521 136 1;
#X msg 487 136 0;
#X msg 521 187 stop;
#X obj 556 186 del 200;
#X msg 556 208 0;
#X obj 521 162 sel 1 0;
#X msg 521 209 1;
#X obj 521 231 change;
#X obj 520 253 sel 0 1;
#X obj 520 321 t a;
#X obj 1049 141 t f f;
#X obj 1094 128 sel 1;
#X obj 1049 194 i;
#X obj 1079 193 + 1;
#X msg 1094 149 0;
#X msg 1049 243 send ctl goto \$1;
#X obj 1049 172 metro 41.6667;
#X obj 1049 265 s toFILM;
#X floatatom 673 223 5 0 0 0 - - -, f 5;
#X msg 598 165 send ctl speed 0;
#X floatatom 990 225 5 0 0 0 - - -, f 5;
#X obj 402 64 r FULLSCREEN;
#X msg 539 277 connect localhost 61525;
#X msg 1089 218 send ctl speed 1;
#X floatatom 762 236 5 0 0 0 - - -, f 5;
#X obj 725 232 + 2;
#X obj 1049 216 + 2;
#X obj 793 110 route SEQ1 SEQ2 SEQ3 SEQ4 SEQ5 SEQ6;
#X floatatom 824 224 5 0 0 0 - - -, f 5;
#X floatatom 610 242 5 0 0 0 - - -, f 5;
#X msg 824 195 41.6667;
#X msg 895 194 40;
#X floatatom 137 276 5 0 0 0 - - -, f 5;
#X msg 136 301 send size y \$1;
#X msg 665 132 0;
#X floatatom 34 277 5 0 0 0 - - -, f 5;
#X msg 33 302 send size x \$1;
#X obj 1052 390 r seq-conduite-line;
#X obj 1052 437 route stop;
#X obj 1052 414 route tv;
#X obj 1052 459 b;
#X obj 1052 481 del 50;
#X msg 1052 501 tv pre FIXE \, tv FIXE;
#X obj 1052 521 s seq-conduite-line;
#X obj 685 88 route pre stop FIXE;
#X obj 282 440 cnv 15 450 100 empty empty empty 20 12 0 14 -257985
-66577 0;
#X obj 523 409 s seq-conduite-line;
#X msg 523 370 tv INFO;
#X msg 507 349 tv pre INFO;
#X msg 590 371 tv ARCHIVE \, son ARCHIVE;
#X msg 779 441 tv stop \, son stop;
#X msg 599 344 tv pre ARCHIVE;
#X msg 803 343 film SEQ1;
#X obj 94 516 s seq-conduite-line;
#X msg 94 491 tv stop \, son stop \, film stop;
#X obj 70 494 bng 15 250 50 0 empty empty empty 17 7 0 10 -262144 -1
-1;
#X obj 7 438 r conduite-RESET;
#X msg 875 343 film SEQ3;
#X msg 940 343 film SEQ4;
#X msg 1006 346 film SEQ5;
#X msg 876 361 film SEQ2;
#X msg 1072 347 film SEQ6;
#X msg 789 390 tv SEQ1;
#X msg 708 341 tv pre SEQ1;
#X obj 780 311 bng 15 250 50 0 empty empty empty 17 7 0 10 -262144
-1 -1;
#X msg 530 545 tv pre SEQ\$1 \, tv SEQ\$1 \, film SEQ\$1;
#X msg 530 510 1;
#X msg 558 510 2;
#X msg 587 509 3;
#X msg 615 509 4;
#X msg 644 510 5;
#X msg 670 510 6;
#X msg 364 452 tv pre CADAVRE \, tv CADAVRE;
#X msg 363 478 tv pre NEIGE \, tv NEIGE;
#X obj 299 454 bng 15 250 50 0 media-RESET empty ALLSTOP 17 7 0 10
-258113 -1 -1;
#X msg 535 451 tv pre ARCHIVE \, tv ARCHIVE;
#X msg 534 477 tv pre INFO \, tv INFO;
#X obj 446 568 s seq-conduite-line;
#X obj 95 462 r media-RESET;
#X obj 4 462 s media-RESET;
#X obj 1002 55 route pre stop auto;
#X msg 747 489 5;
#X msg 885 487 6;
#X msg 676 567 film SEQ\$1 \, tv pre SEQ\$1 \, tv SEQ\$1 \, film auto
;
#X msg 746 511 film SEQ\$1 \, tv pre SEQ\$1 \, tv SEQ\$1 \, film auto
;
#X connect 0 0 36 0;
#X connect 1 0 43 0;
#X connect 1 1 2 0;
#X connect 1 2 42 0;
#X connect 2 0 9 0;
#X connect 3 0 1 0;
#X connect 4 0 72 0;
#X connect 4 1 5 0;
#X connect 4 2 71 0;
#X connect 5 0 10 0;
#X connect 6 0 4 0;
#X connect 7 0 3 0;
#X connect 8 0 6 0;
#X connect 11 0 12 0;
#X connect 12 0 1 0;
#X connect 13 0 30 0;
#X connect 14 0 15 0;
#X connect 15 0 16 0;
#X connect 15 0 17 0;
#X connect 16 0 13 0;
#X connect 17 0 13 0;
#X connect 18 0 1 0;
#X connect 19 0 18 0;
#X connect 20 0 11 0;
#X connect 21 0 1 0;
#X connect 22 0 21 0;
#X connect 23 0 22 0;
#X connect 24 0 22 0;
#X connect 25 0 22 0;
#X connect 26 0 1 0;
#X connect 27 0 26 0;
#X connect 28 0 27 0;
#X connect 29 0 27 0;
#X connect 30 0 4 0;
#X connect 32 0 31 0;
#X connect 33 0 30 0;
#X connect 33 0 12 0;
#X connect 34 0 35 0;
#X connect 35 0 33 0;
#X connect 36 0 7 0;
#X connect 36 1 8 0;
#X connect 37 0 1 0;
#X connect 38 0 1 0;
#X connect 39 0 38 0;
#X connect 40 0 51 0;
#X connect 41 0 51 0;
#X connect 42 0 47 0;
#X connect 43 0 47 0;
#X connect 44 0 45 0;
#X connect 44 0 48 0;
#X connect 45 0 46 0;
#X connect 46 0 49 0;
#X connect 47 0 44 0;
#X connect 47 1 45 0;
#X connect 48 0 49 0;
#X connect 49 0 50 0;
#X connect 50 0 41 0;
#X connect 50 1 40 0;
#X connect 51 0 2 0;
#X connect 52 0 53 0;
#X connect 53 0 115 0;
#X connect 53 1 151 0;
#X connect 54 0 59 0;
#X connect 55 0 59 0;
#X connect 56 0 60 0;
#X connect 57 0 60 0;
#X connect 58 0 63 0;
#X connect 59 0 61 0;
#X connect 60 0 81 0;
#X connect 61 0 58 0;
#X connect 61 1 62 0;
#X connect 62 0 65 0;
#X connect 63 0 64 0;
#X connect 63 0 96 0;
#X connect 64 0 63 1;
#X connect 65 0 63 1;
#X connect 66 0 67 0;
#X connect 68 0 3 0;
#X connect 69 0 6 0;
#X connect 70 0 80 0;
#X connect 71 0 76 0;
#X connect 72 0 76 0;
#X connect 73 0 74 0;
#X connect 73 0 77 0;
#X connect 74 0 75 0;
#X connect 75 0 78 0;
#X connect 76 0 73 0;
#X connect 76 1 74 0;
#X connect 77 0 78 0;
#X connect 78 0 79 0;
#X connect 79 0 70 0;
#X connect 79 1 93 0;
#X connect 80 0 5 0;
#X connect 81 0 87 0;
#X connect 81 1 82 0;
#X connect 82 0 85 0;
#X connect 83 0 84 0;
#X connect 83 0 97 0;
#X connect 84 0 83 1;
#X connect 85 0 83 1;
#X connect 86 0 88 0;
#X connect 87 0 83 0;
#X connect 90 0 67 0;
#X connect 92 0 33 0;
#X connect 93 0 80 0;
#X connect 94 0 88 0;
#X connect 95 0 96 1;
#X connect 96 0 66 0;
#X connect 96 0 89 0;
#X connect 97 0 86 0;
#X connect 97 0 91 0;
#X connect 98 0 101 0;
#X connect 98 1 101 0;
#X connect 98 2 101 0;
#X connect 98 3 101 0;
#X connect 98 4 101 0;
#X connect 98 5 101 0;
#X connect 98 6 102 0;
#X connect 99 0 58 1;
#X connect 101 0 99 0;
#X connect 102 0 99 0;
#X connect 103 0 104 0;
#X connect 104 0 1 0;
#X connect 105 0 58 0;
#X connect 106 0 107 0;
#X connect 107 0 1 0;
#X connect 108 0 110 0;
#X connect 109 0 111 0;
#X connect 110 0 109 0;
#X connect 111 0 112 0;
#X connect 112 0 113 0;
#X connect 113 0 114 0;
#X connect 115 1 54 0;
#X connect 115 3 98 0;
#X connect 115 3 55 0;
#X connect 118 0 117 0;
#X connect 119 0 117 0;
#X connect 120 0 117 0;
#X connect 121 0 117 0;
#X connect 122 0 117 0;
#X connect 123 0 117 0;
#X connect 125 0 124 0;
#X connect 127 0 150 0;
#X connect 128 0 117 0;
#X connect 129 0 117 0;
#X connect 130 0 117 0;
#X connect 131 0 117 0;
#X connect 132 0 117 0;
#X connect 133 0 117 0;
#X connect 134 0 117 0;
#X connect 135 0 123 0;
#X connect 135 0 133 0;
#X connect 136 0 148 0;
#X connect 137 0 136 0;
#X connect 138 0 136 0;
#X connect 139 0 136 0;
#X connect 140 0 136 0;
#X connect 141 0 136 0;
#X connect 142 0 136 0;
#X connect 143 0 148 0;
#X connect 144 0 148 0;
#X connect 146 0 148 0;
#X connect 147 0 148 0;
#X connect 149 0 125 0;
#X connect 151 1 56 0;
#X connect 151 2 56 0;
#X connect 151 2 94 0;
#X connect 151 3 57 0;
#X connect 152 0 155 0;
#X connect 155 0 148 0;
#X restore 99 115 pd FILMS;
#X msg 129 203 stop;
#X obj 48 378 cnv 15 450 100 empty empty empty 20 12 0 14 -257985 -66577
0;
#X msg 296 483 tv pre SEQ\$1 \, tv SEQ\$1 \, film SEQ\$1;
#X msg 296 448 1;
#X msg 324 448 2;
#X msg 353 447 3;
#X msg 381 447 4;
#X msg 408 448 5;
#X msg 436 448 6;
#X msg 130 390 tv pre CADAVRE \, tv CADAVRE;
#X msg 129 416 tv pre NEIGE \, tv NEIGE;
#X obj 65 392 bng 15 250 50 0 media-RESET empty ALLSTOP 17 7 0 10 -258113
-1 -1;
#X msg 301 389 tv pre ARCHIVE \, tv ARCHIVE;
#X msg 300 415 tv pre INFO \, tv INFO;
#X obj 212 506 s seq-conduite-line;
#N canvas 127 175 542 297 dimmers 0;
#X obj 111 132 vsl 15 128 0 1 0 0 dimmer1 dimmer1 1 0 -9 0 10 -262144
-1 -1 0 1;
#X obj 127 132 vsl 15 128 0 1 0 0 dimmer2 dimmer2 2 0 -9 0 10 -262144
-1 -1 0 1;
#X obj 143 132 vsl 15 128 0 1 0 0 dimmer3 dimmer3 3 0 -9 0 10 -262144
-1 -1 0 1;
#X obj 159 132 vsl 15 128 0 1 0 0 dimmer4 dimmer4 4 0 -9 0 10 -262144
-1 -1 0 1;
#X obj 216 128 r dimmer1;
#X obj 216 150 * 65535;
#X msg 216 173 0 \$1;
#X obj 277 150 * 65535;
#X obj 341 150 * 65535;
#X obj 402 150 * 65535;
#X obj 277 128 r dimmer2;
#X msg 277 173 1 \$1;
#X msg 341 173 2 \$1;
#X obj 341 128 r dimmer3;
#X msg 402 173 3 \$1;
#X obj 402 128 r dimmer4;
#X obj 293 243 outlet;
#X connect 4 0 5 0;
#X connect 5 0 6 0;
#X connect 6 0 16 0;
#X connect 7 0 11 0;
#X connect 8 0 12 0;
#X connect 9 0 14 0;
#X connect 10 0 7 0;
#X connect 11 0 16 0;
#X connect 12 0 16 0;
#X connect 13 0 8 0;
#X connect 14 0 16 0;
#X connect 15 0 9 0;
#X coords 0 -1 1 1 85 165 1 100 100;
#X restore 459 140 pd dimmers;
#X obj 239 126 pied/pied 0 41424;
#X obj 239 250 fruit/fruit 1 horloge 12 horloge;
#X obj 239 202 fruit/fruit 1 grada 11 gradaphone;
#X obj 45 585 s seq-conduite-line;
#X msg 45 532 horlogeGoto 0 0;
#X text 145 530 va a minuit;
#X msg 71 554 aiguilles 20 5;
#X text 164 552 va a 1h10;
#X connect 2 0 3 0;
#X connect 13 0 18 0;
#X connect 16 0 4 0;
#X connect 16 1 15 0;
#X connect 17 0 16 0;
#X connect 18 0 16 0;
#X connect 21 0 18 0;
#X connect 21 0 15 0;
#X connect 23 0 35 0;
#X connect 24 0 23 0;
#X connect 25 0 23 0;
#X connect 26 0 23 0;
#X connect 27 0 23 0;
#X connect 28 0 23 0;
#X connect 29 0 23 0;
#X connect 30 0 35 0;
#X connect 31 0 35 0;
#X connect 33 0 35 0;
#X connect 34 0 35 0;
#X connect 41 0 40 0;
#X connect 43 0 40 0;
