#N canvas 343 153 934 684 10;
#X declare -stdpath Fraise;
#X declare -lib iemlib;
#X declare -path FraiseNet;
#X msg 195 437 c 120 c 4 i \$1;
#X obj 198 413 hsl 128 15 0 1023 0 0 empty empty empty -2 -8 0 10 -262144
-1 -1 0 1;
#X obj 198 475 hsl 128 15 -1023 1023 0 0 empty empty empty -2 -8 0
10 -262144 -1 -1 0 1;
#X msg 195 499 c 121 c 4 i \$1;
#X msg 167 386 0;
#X obj 247 22 fruit/receive grada;
#X obj 50 607 fruit/send2 grada;
#X obj 345 453 tgl 15 0 empty empty empty 17 7 0 10 -262144 -1 -1 0
1;
#X obj 346 472 t b f;
#X msg 346 524 0;
#X floatatom 336 585 5 0 0 0 - - -, f 5;
#X obj 344 414 tgl 15 0 empty empty empty 17 7 0 10 -262144 -1 -1 0
1;
#X floatatom 408 432 5 0 0 0 - - -, f 5;
#X floatatom 426 462 5 0 0 0 - - -, f 5;
#N canvas 127 175 542 297 dimmers 0;
#X obj 111 132 vsl 15 128 0 1 0 0 dimmer1 dimmer1 1 0 -9 0 10 -262144
-1 -1 0 1;
#X obj 127 132 vsl 15 128 0 1 0 0 dimmer2 dimmer2 2 0 -9 0 10 -262144
-1 -1 0 1;
#X obj 143 132 vsl 15 128 0 1 0 0 dimmer3 dimmer3 3 0 -9 0 10 -262144
-1 -1 0 1;
#X obj 159 132 vsl 15 128 0 1 0 0 dimmer4 dimmer4 4 0 -9 0 10 -262144
-1 -1 0 1;
#X obj 216 128 r dimmer1;
#X obj 216 150 * 65535;
#X msg 216 173 0 \$1;
#X obj 277 150 * 65535;
#X obj 341 150 * 65535;
#X obj 402 150 * 65535;
#X obj 277 128 r dimmer2;
#X msg 277 173 1 \$1;
#X msg 341 173 2 \$1;
#X obj 341 128 r dimmer3;
#X msg 402 173 3 \$1;
#X obj 402 128 r dimmer4;
#X obj 293 243 outlet;
#X connect 4 0 5 0;
#X connect 5 0 6 0;
#X connect 6 0 16 0;
#X connect 7 0 11 0;
#X connect 8 0 12 0;
#X connect 9 0 14 0;
#X connect 10 0 7 0;
#X connect 11 0 16 0;
#X connect 12 0 16 0;
#X connect 13 0 8 0;
#X connect 14 0 16 0;
#X connect 15 0 9 0;
#X coords 0 -1 1 1 85 165 1 100 100;
#X restore 37 313 pd dimmers;
#X msg 40 485 c 40 c \$1 i \$2;
#X obj 247 44 route s;
#X obj 247 189 tgl 50 0 empty empty empty 17 7 0 10 -4034 -1 -1 0 1
;
#N canvas 75 433 486 365 test 0;
#X obj 82 43 vsl 15 128 0 1 0 0 empty empty 0 0 -9 0 10 -262144 -1
-1 0 1;
#X msg 82 179 0 \$1;
#X obj 98 227 unpack f f;
#X obj 98 295 pack f f;
#X obj 155 270 i;
#X obj 120 43 vsl 15 128 0 1 0 0 empty empty 1 0 -9 0 10 -262144 -1
-1 0 1;
#X obj 158 43 vsl 15 128 0 1 0 0 empty empty 2 0 -9 0 10 -262144 -1
-1 0 1;
#X obj 196 43 vsl 15 128 0 1 0 0 empty empty 3 0 -9 0 10 -262144 -1
-1 0 1;
#X obj 233 44 vsl 15 128 0 1 0 0 empty empty 4 0 -9 0 10 -262144 -1
-1 0 1;
#X obj 271 44 vsl 15 128 0 1 0 0 empty empty 5 0 -9 0 10 -262144 -1
-1 0 1;
#X obj 309 44 vsl 15 128 0 1 0 0 empty empty 6 0 -9 0 10 -262144 -1
-1 0 1;
#X obj 347 44 vsl 15 128 0 1 0 0 empty empty 7 0 -9 0 10 -262144 -1
-1 0 1;
#X msg 120 179 1 \$1;
#X msg 158 179 2 \$1;
#X msg 196 179 3 \$1;
#X msg 233 180 4 \$1;
#X msg 271 180 5 \$1;
#X msg 309 180 6 \$1;
#X msg 347 180 7 \$1;
#X msg 98 320 c 40 c \$1 i \$2;
#X obj 52 57 bng 15 250 50 0 empty empty empty 17 7 0 10 -262144 -1
-1;
#X obj 155 248 * 65535;
#X obj 98 342 outlet;
#X connect 0 0 1 0;
#X connect 1 0 2 0;
#X connect 2 0 3 0;
#X connect 2 1 21 0;
#X connect 3 0 19 0;
#X connect 4 0 3 1;
#X connect 5 0 12 0;
#X connect 6 0 13 0;
#X connect 7 0 14 0;
#X connect 8 0 15 0;
#X connect 9 0 16 0;
#X connect 10 0 17 0;
#X connect 11 0 18 0;
#X connect 12 0 2 0;
#X connect 13 0 2 0;
#X connect 14 0 2 0;
#X connect 15 0 2 0;
#X connect 16 0 2 0;
#X connect 17 0 2 0;
#X connect 18 0 2 0;
#X connect 19 0 22 0;
#X connect 20 0 0 0;
#X connect 21 0 4 0;
#X restore 64 522 pd test;
#X obj 344 391 metro 2000;
#X obj 414 386 sel 0;
#X msg 414 408 0;
#X msg 593 591 0 \$1;
#X msg 593 552 0;
#X obj 627 564 * 8;
#X floatatom 593 477 5 0 0 0 - - -, f 5;
#X obj 618 650 fruit/send2 horloge;
#X msg 618 625 c 20 c \$1 i \$2;
#X obj 627 542 + 1528;
#X obj 593 518 sel 0;
#X msg 697 548 0;
#X obj 731 560 * 8;
#X floatatom 666 415 5 0 0 0 - - -, f 5;
#X obj 666 434 max 0;
#X obj 731 538 + 1528;
#X obj 697 514 sel 0;
#X msg 697 587 1 \$1;
#X msg 780 550 0;
#X obj 814 562 * 8;
#X floatatom 790 466 5 0 0 0 - - -, f 5;
#X obj 814 540 + 1528;
#X obj 780 516 sel 0;
#X msg 780 589 2 \$1;
#X obj 780 494 clip 0 20;
#X obj 247 66 route 0 1;
#X obj 272 113 tgl 50 0 empty empty empty 17 7 0 10 -257985 -1 -1 0
1;
#X floatatom 707 410 5 0 0 0 - - -, f 5;
#X obj 706 431 min 0;
#X obj 344 356 tgl 15 0 empty empty empty 17 7 0 10 -262144 -1 -1 0
1;
#X obj 346 431 metro 22;
#X obj 346 497 del 12;
#X obj 344 328 r phone-sonne;
#X obj 406 218 == 0;
#X obj 272 169 s mouvement;
#X obj 247 242 s phone-decroche;
#X obj 771 424 r horloge-carillon;
#X obj 759 331 r horloge-aiguilles;
#X obj 505 146 route s;
#X obj 505 168 route 0 1;
#X obj 505 124 fruit/receive horloge;
#X obj 506 243 tgl 15 0 empty empty empty 17 7 0 10 -262144 -1 -1 0
1;
#X obj 506 269 sel 1;
#X msg 515 321 0;
#X obj 505 221 change;
#X obj 505 200 tgl 15 0 empty empty empty 17 7 0 10 -262144 -1 -1 0
1;
#X msg 710 379 -50;
#X obj 515 299 del 10;
#X obj 669 319 del 10000;
#X msg 667 356 0;
#X obj 674 290 t b f;
#X msg 670 264 -20;
#X msg 712 261 -11;
#X msg 714 238 11;
#X msg 664 388 100;
#X obj 21 17 declare -stdpath Fraise;
#X obj 24 214 declare -lib iemlib;
#X obj 392 497 * 2048;
#X obj 392 520 - 1024;
#X obj 392 544 * 0.1;
#X obj 365 65 sel 1 0;
#X obj 383 125 del 100;
#X msg 365 88 stop;
#X msg 383 147 1;
#X msg 355 126 0;
#X obj 383 169 change;
#X text 125 276 1:abatjour1 2:horloge 3:fenetre 4 :abat-jour2;
#X obj 543 427 r horloge-gong;
#X msg 708 349 -100;
#X obj 212 312 r ventilo;
#X obj 195 389 * 1023;
#X obj 564 240 r horloge-minuit;
#X floatatom 542 346 5 0 0 0 - - -, f 5;
#X obj 542 365 change;
#X obj 759 378 clip -150 150;
#X floatatom 765 403 5 0 0 0 - - -, f 5;
#X obj 733 196 s horloge-aiguilles;
#X msg 732 163 -100;
#X msg 564 283 100;
#N canvas 282 211 1003 420 tests 0;
#X obj 24 45 s horloge-minuit;
#X obj 24 15 bng 15 250 50 0 empty empty empty 17 7 0 10 -262144 -1
-1;
#X obj 167 198 s horloge-aiguilles;
#X obj 167 95 unpack f f;
#X obj 224 116 * 1000;
#X obj 224 138 del;
#X msg 224 160 0;
#X msg 99 146 -78.5 45;
#X text 172 51 12h->5h20;
#X msg 277 91 40 5;
#X msg 304 160 20 1;
#X msg 310 182 10 1;
#X text 250 49 5h20->1h10;
#X text 183 37 A:15s;
#X text 259 35 A:6m26s;
#X text 343 39 A:11m45s;
#X msg 342 243 100 10;
#X text 348 226 9h;
#X msg 300 138 -15 1;
#X msg 303 118 -30 1;
#X text 334 53 1h10->12h40;
#X msg 339 91 -120 15;
#X msg 336 69 120 14.2;
#X msg 427 121 -120 15;
#X msg 427 68 -120 13;
#X text 435 39 B:0;
#X text 426 52 12h40->2h20;
#X text 516 39 B:4m04;
#X msg 508 68 100 10;
#X text 508 52 2h20->10h10;
#X text 600 38 B:7m20;
#X text 592 51 10h10->11h;
#X msg 595 89 -140 15;
#X msg 592 67 140 15.5;
#X text 687 38 C:0;
#X obj 683 68 bng 15 250 50 0 empty empty empty 17 7 0 10 -262144 -1
-1;
#X obj 683 94 s horloge-minuit-;
#X text 891 47 C:8m09;
#X text 679 51 12h;
#X obj 875 142 t a;
#X text 804 54 C:4m34;
#X text 806 70 12h->14h;
#X msg 813 128 -30 10;
#X msg 813 101 18.7 10;
#X text 891 61 14h->9h10;
#X msg 925 101 -30 12;
#X msg 922 139 65 7;
#X msg 342 140 -10 1;
#X msg 899 81 -39.5 14.2;
#X msg 167 69 -66 11;
#X obj 464 190 s seq-conduite-line;
#X msg 464 165 horloge 1;
#X msg 252 65 -48 10;
#X obj 67 278 horlogeGoto -66 11;
#X obj 67 241 bng 15 250 50 0 empty empty empty 17 7 0 10 -262144 -1
-1;
#X text 87 260 12h->5h20;
#X obj 63 333 bng 15 250 50 0 empty empty empty 17 7 0 10 -262144 -1
-1;
#X text 84 342 12h->1h10;
#X obj 192 334 bng 15 250 50 0 empty empty empty 17 7 0 10 -262144
-1 -1;
#X text 213 343 12h->12h40;
#X obj 312 335 bng 15 250 50 0 empty empty empty 17 7 0 10 -262144
-1 -1;
#X text 333 344 12h->2h20;
#X obj 429 332 bng 15 250 50 0 empty empty empty 17 7 0 10 -262144
-1 -1;
#X text 450 341 12h->10h10;
#X obj 559 330 bng 15 250 50 0 empty empty empty 17 7 0 10 -262144
-1 -1;
#X text 580 339 12h->11h;
#X obj 707 324 bng 15 250 50 0 empty empty empty 17 7 0 10 -262144
-1 -1;
#X text 727 333 12h->2h;
#X obj 852 326 bng 15 250 50 0 empty empty empty 17 7 0 10 -262144
-1 -1;
#X text 873 335 12h->9h10;
#X msg 352 171 120 1;
#X obj 63 360 horlogeGoto 20 5;
#X obj 192 361 horlogeGoto 18 3;
#X obj 312 362 horlogeGoto 52 4;
#X obj 429 359 horlogeGoto -52 4;
#X obj 559 358 horlogeGoto -30 4.6;
#X obj 707 352 horlogeGoto 44 4;
#X obj 853 353 horlogeGoto -84 4;
#X obj 832 272 t b a;
#X msg 834 231 20 5;
#X connect 1 0 0 0;
#X connect 3 0 2 0;
#X connect 3 1 4 0;
#X connect 4 0 5 0;
#X connect 5 0 6 0;
#X connect 6 0 2 0;
#X connect 7 0 3 0;
#X connect 9 0 3 0;
#X connect 10 0 3 0;
#X connect 11 0 3 0;
#X connect 18 0 3 0;
#X connect 19 0 3 0;
#X connect 21 0 3 0;
#X connect 22 0 3 0;
#X connect 24 0 3 0;
#X connect 28 0 3 0;
#X connect 32 0 3 0;
#X connect 33 0 3 0;
#X connect 35 0 36 0;
#X connect 39 0 3 0;
#X connect 42 0 39 0;
#X connect 43 0 39 0;
#X connect 46 0 39 0;
#X connect 47 0 3 0;
#X connect 48 0 39 0;
#X connect 49 0 3 0;
#X connect 51 0 50 0;
#X connect 52 0 3 0;
#X connect 54 0 53 0;
#X connect 56 0 71 0;
#X connect 58 0 72 0;
#X connect 60 0 73 0;
#X connect 62 0 74 0;
#X connect 64 0 75 0;
#X connect 66 0 76 0;
#X connect 68 0 77 0;
#X connect 70 0 3 0;
#X connect 78 0 68 0;
#X connect 78 1 77 1;
#X connect 79 0 78 0;
#X restore 759 107 pd tests;
#X obj 587 203 r horloge-minuit-;
#X msg 607 270 -100;
#X floatatom 611 344 5 0 0 0 - - -, f 5;
#X obj 611 363 change;
#X msg 572 327 0;
#X msg 626 307 -7;
#X obj 572 305 del 1800;
#X obj 476 532 s seq-conduite-line;
#X msg 476 507 horloge 0 5;
#X obj 476 486 sel 0;
#X obj 489 584 sel 0;
#X obj 593 496 clip 0 30;
#X msg 488 642 30;
#X obj 489 608 bng 15 250 50 0 empty empty empty 17 7 0 10 -262144
-1 -1;
#X msg 530 653 0;
#X msg 456 457 horloge 1 5;
#X obj 543 447 * 30;
#X obj 771 445 * 10;
#X obj 803 647 tgl 15 0 empty empty empty 17 7 0 10 -262144 -1 -1 0
1;
#X msg 818 623 1;
#X msg 843 642 0;
#X obj 842 591 bng 15 250 50 0 empty empty empty 17 7 0 10 -262144
-1 -1;
#X obj 844 622 del 6000;
#X obj 368 636 tgl 15 0 empty empty empty 17 7 0 10 -262144 -1 -1 0
1;
#X msg 383 612 1;
#X msg 408 631 0;
#X obj 407 580 bng 15 250 50 0 empty empty empty 17 7 0 10 -262144
-1 -1;
#X obj 409 611 del 4000;
#X obj 172 562 tgl 15 0 empty empty empty 17 7 0 10 -262144 -1 -1 1
1;
#X obj 171 696 / 1000;
#X floatatom 199 724 5 0 0 0 - - -, f 5;
#X obj 272 715 s ventilo;
#X obj 196 368 clip 0 1;
#X obj 171 632 + 700;
#X msg 171 652 \$1 200;
#X obj 172 539 loadbang;
#X obj 172 610 random 350;
#X obj 171 585 metro 120;
#X obj 195 346 *;
#X floatatom 234 345 5 0 0 0 - - -, f 5;
#X obj 530 633 del 3000;
#X obj 759 354 * -1;
#X obj 171 674 line 0 50;
#X obj 401 244 r horloge-minuit+;
#X floatatom 461 340 5 0 0 0 - - -, f 5;
#X obj 461 358 change;
#X msg 473 309 0;
#X obj 461 386 sel 0;
#X obj 461 407 s horloge-minuit+-done;
#X msg 401 287 150;
#N canvas 65 82 450 300 bounce 0;
#X obj 145 32 inlet;
#X obj 158 228 outlet;
#X obj 161 134 del 100;
#X msg 143 97 stop;
#X obj 161 178 change;
#X obj 143 70 sel 1 0;
#X msg 133 135 1;
#X msg 161 156 0;
#X connect 0 0 5 0;
#X connect 2 0 7 0;
#X connect 3 0 2 0;
#X connect 3 0 6 0;
#X connect 4 0 1 0;
#X connect 5 0 3 0;
#X connect 5 1 2 0;
#X connect 6 0 4 0;
#X connect 7 0 4 0;
#X restore 222 91 pd bounce;
#X obj 18 40 declare -path FraiseNet;
#X obj 28 73 PdClient \$0 pi;
#X obj 28 113 FraiseNet \$0;
#X connect 0 0 6 0;
#X connect 1 0 0 0;
#X connect 2 0 3 0;
#X connect 3 0 6 0;
#X connect 4 0 1 0;
#X connect 4 0 2 0;
#X connect 5 0 16 0;
#X connect 7 0 8 0;
#X connect 8 0 50 0;
#X connect 8 1 76 0;
#X connect 9 0 3 0;
#X connect 11 0 49 0;
#X connect 12 0 49 1;
#X connect 13 0 50 1;
#X connect 14 0 15 0;
#X connect 15 0 6 0;
#X connect 16 0 44 0;
#X connect 17 0 54 0;
#X connect 18 0 6 0;
#X connect 19 0 11 0;
#X connect 20 0 21 0;
#X connect 21 0 11 0;
#X connect 22 0 27 0;
#X connect 23 0 22 0;
#X connect 24 0 22 0;
#X connect 25 0 110 0;
#X connect 27 0 26 0;
#X connect 28 0 24 0;
#X connect 29 0 23 0;
#X connect 29 1 28 0;
#X connect 30 0 36 0;
#X connect 31 0 36 0;
#X connect 32 0 33 0;
#X connect 33 0 35 0;
#X connect 34 0 31 0;
#X connect 35 0 30 0;
#X connect 35 1 34 0;
#X connect 36 0 27 0;
#X connect 37 0 42 0;
#X connect 38 0 42 0;
#X connect 39 0 43 0;
#X connect 40 0 38 0;
#X connect 41 0 37 0;
#X connect 41 1 40 0;
#X connect 42 0 27 0;
#X connect 43 0 41 0;
#X connect 44 0 149 0;
#X connect 44 1 79 0;
#X connect 45 0 53 0;
#X connect 46 0 47 0;
#X connect 47 0 35 0;
#X connect 48 0 19 0;
#X connect 48 0 20 0;
#X connect 49 0 7 0;
#X connect 50 0 9 0;
#X connect 51 0 48 0;
#X connect 55 0 116 0;
#X connect 56 0 140 0;
#X connect 57 0 58 0;
#X connect 58 0 64 0;
#X connect 59 0 57 0;
#X connect 60 0 61 0;
#X connect 61 0 66 0;
#X connect 61 0 105 0;
#X connect 61 0 145 0;
#X connect 62 0 91 0;
#X connect 63 0 60 0;
#X connect 64 0 63 0;
#X connect 65 0 46 0;
#X connect 66 0 62 0;
#X connect 67 0 68 0;
#X connect 68 0 46 0;
#X connect 69 0 67 0;
#X connect 69 1 35 0;
#X connect 70 0 69 0;
#X connect 71 0 69 0;
#X connect 72 0 69 0;
#X connect 73 0 32 0;
#X connect 76 0 77 0;
#X connect 77 0 78 0;
#X connect 78 0 3 0;
#X connect 79 0 81 0;
#X connect 79 1 80 0;
#X connect 80 0 82 0;
#X connect 81 0 80 0;
#X connect 81 0 83 0;
#X connect 82 0 84 0;
#X connect 83 0 84 0;
#X connect 84 0 45 0;
#X connect 86 0 115 0;
#X connect 87 0 46 0;
#X connect 88 0 137 1;
#X connect 89 0 1 0;
#X connect 90 0 97 0;
#X connect 91 0 92 0;
#X connect 92 0 35 0;
#X connect 92 0 108 0;
#X connect 93 0 35 0;
#X connect 93 0 94 0;
#X connect 97 0 91 0;
#X connect 99 0 104 0;
#X connect 101 0 102 0;
#X connect 102 0 35 0;
#X connect 102 0 109 0;
#X connect 103 0 101 0;
#X connect 104 0 101 0;
#X connect 105 0 103 0;
#X connect 107 0 106 0;
#X connect 108 0 107 0;
#X connect 109 0 112 0;
#X connect 110 0 29 0;
#X connect 111 0 110 0;
#X connect 112 0 111 0;
#X connect 112 0 139 0;
#X connect 113 0 110 0;
#X connect 114 0 106 0;
#X connect 115 0 110 0;
#X connect 116 0 43 0;
#X connect 117 0 116 0;
#X connect 118 0 117 0;
#X connect 119 0 117 0;
#X connect 120 0 118 0;
#X connect 120 0 121 0;
#X connect 121 0 119 0;
#X connect 121 0 125 0;
#X connect 122 0 115 0;
#X connect 123 0 122 0;
#X connect 124 0 122 0;
#X connect 125 0 123 0;
#X connect 125 0 126 0;
#X connect 126 0 124 0;
#X connect 127 0 136 0;
#X connect 128 0 137 0;
#X connect 131 0 89 0;
#X connect 132 0 133 0;
#X connect 133 0 141 0;
#X connect 134 0 127 0;
#X connect 135 0 132 0;
#X connect 136 0 135 0;
#X connect 137 0 131 0;
#X connect 138 0 137 1;
#X connect 139 0 113 0;
#X connect 139 0 107 0;
#X connect 140 0 93 0;
#X connect 141 0 128 0;
#X connect 142 0 148 0;
#X connect 143 0 144 0;
#X connect 144 0 35 0;
#X connect 144 0 146 0;
#X connect 145 0 143 0;
#X connect 146 0 147 0;
#X connect 148 0 143 0;
#X connect 149 0 17 0;
