#N canvas 550 133 883 744 10;
#X declare -stdpath moonlib;
#X declare -stdpath hcs;
#X declare -stdpath ggee;
#X declare -stdpath zexy;
#X declare -lib zexy;
#X declare -stdpath Fraise;
#X declare -lib iemlib;
#X obj 21 38 pied/pied 0 41424;
#X msg 195 437 c 120 c 4 i \$1;
#X obj 198 413 hsl 128 15 -1023 1023 0 0 empty empty empty -2 -8 0
10 -262144 -1 -1 0 1;
#X obj 198 475 hsl 128 15 -1023 1023 0 0 empty empty empty -2 -8 0
10 -262144 -1 -1 0 1;
#X msg 195 499 c 121 c 4 i \$1;
#X msg 167 386 0;
#X obj 19 141 fruit/fruit 1 grada 11 gradaphone;
#X obj 247 22 fruit/receive grada;
#X obj 50 607 fruit/send2 grada;
#X obj 345 453 tgl 15 0 empty empty empty 17 7 0 10 -262144 -1 -1 0
1;
#X obj 346 472 t b f;
#X msg 357 525 0;
#X floatatom 368 563 5 0 0 0 - - -, f 5;
#X obj 392 497 * 1024;
#X obj 391 519 - 512;
#X obj 344 414 tgl 15 0 empty empty empty 17 7 0 10 -262144 -1 -1 0
1;
#X floatatom 408 432 5 0 0 0 - - -, f 5;
#X floatatom 426 462 5 0 0 0 - - -, f 5;
#N canvas 132 165 542 297 dimmers 0;
#X obj 111 132 vsl 15 128 0 1 0 0 dimmer1 dimmer1 1 0 -9 0 10 -262144
-1 -1 0 1;
#X obj 127 132 vsl 15 128 0 1 0 0 dimmer2 dimmer2 2 0 -9 0 10 -262144
-1 -1 0 1;
#X obj 143 132 vsl 15 128 0 1 0 0 dimmer3 dimmer3 3 0 -9 0 10 -262144
-1 -1 0 1;
#X obj 159 132 vsl 15 128 0 1 0 0 dimmer4 dimmer4 4 0 -9 0 10 -262144
-1 -1 0 1;
#X obj 216 128 r dimmer1;
#X obj 216 150 * 65535;
#X msg 216 173 0 \$1;
#X obj 277 150 * 65535;
#X obj 341 150 * 65535;
#X obj 402 150 * 65535;
#X obj 277 128 r dimmer2;
#X msg 277 173 1 \$1;
#X msg 341 173 2 \$1;
#X obj 341 128 r dimmer3;
#X msg 402 173 3 \$1;
#X obj 402 128 r dimmer4;
#X obj 293 243 outlet;
#X connect 4 0 5 0;
#X connect 5 0 6 0;
#X connect 6 0 16 0;
#X connect 7 0 11 0;
#X connect 8 0 12 0;
#X connect 9 0 14 0;
#X connect 10 0 7 0;
#X connect 11 0 16 0;
#X connect 12 0 16 0;
#X connect 13 0 8 0;
#X connect 14 0 16 0;
#X connect 15 0 9 0;
#X coords 0 -1 1 1 85 165 1 100 100;
#X restore 37 313 pd dimmers;
#X msg 40 485 c 40 c \$1 i \$2;
#X obj 247 44 route s;
#X obj 247 189 tgl 50 0 empty empty empty 17 7 0 10 -4034 -1 -1 0 1
;
#N canvas 75 433 486 365 test 0;
#X obj 82 43 vsl 15 128 0 1 0 0 empty empty 0 0 -9 0 10 -262144 -1
-1 0 1;
#X msg 82 179 0 \$1;
#X obj 98 227 unpack f f;
#X obj 98 295 pack f f;
#X obj 155 270 i;
#X obj 120 43 vsl 15 128 0 1 0 0 empty empty 1 0 -9 0 10 -262144 -1
-1 0 1;
#X obj 158 43 vsl 15 128 0 1 0 0 empty empty 2 0 -9 0 10 -262144 -1
-1 0 1;
#X obj 196 43 vsl 15 128 0 1 0 0 empty empty 3 0 -9 0 10 -262144 -1
-1 0 1;
#X obj 233 44 vsl 15 128 0 1 0 0 empty empty 4 0 -9 0 10 -262144 -1
-1 0 1;
#X obj 271 44 vsl 15 128 0 1 0 0 empty empty 5 0 -9 0 10 -262144 -1
-1 0 1;
#X obj 309 44 vsl 15 128 0 1 0 0 empty empty 6 0 -9 0 10 -262144 -1
-1 0 1;
#X obj 347 44 vsl 15 128 0 1 0 0 empty empty 7 0 -9 0 10 -262144 -1
-1 0 1;
#X msg 120 179 1 \$1;
#X msg 158 179 2 \$1;
#X msg 196 179 3 \$1;
#X msg 233 180 4 \$1;
#X msg 271 180 5 \$1;
#X msg 309 180 6 \$1;
#X msg 347 180 7 \$1;
#X msg 98 320 c 40 c \$1 i \$2;
#X obj 52 57 bng 15 250 50 0 empty empty empty 17 7 0 10 -262144 -1
-1;
#X obj 155 248 * 65535;
#X obj 98 342 outlet;
#X connect 0 0 1 0;
#X connect 1 0 2 0;
#X connect 2 0 3 0;
#X connect 2 1 21 0;
#X connect 3 0 19 0;
#X connect 4 0 3 1;
#X connect 5 0 12 0;
#X connect 6 0 13 0;
#X connect 7 0 14 0;
#X connect 8 0 15 0;
#X connect 9 0 16 0;
#X connect 10 0 17 0;
#X connect 11 0 18 0;
#X connect 12 0 2 0;
#X connect 13 0 2 0;
#X connect 14 0 2 0;
#X connect 15 0 2 0;
#X connect 16 0 2 0;
#X connect 17 0 2 0;
#X connect 18 0 2 0;
#X connect 19 0 22 0;
#X connect 20 0 0 0;
#X connect 21 0 4 0;
#X restore 64 522 pd test;
#X obj 344 391 metro 2000;
#X obj 414 386 sel 0;
#X msg 414 408 0;
#X obj 502 61 fruit/fruit 1 horloge 12 horloge;
#X msg 593 591 0 \$1;
#X msg 593 552 0;
#X obj 627 564 * 8;
#X floatatom 593 477 5 0 0 0 - - -, f 5;
#X obj 618 650 fruit/send2 horloge;
#X msg 618 625 c 20 c \$1 i \$2;
#X obj 627 542 + 1528;
#X obj 593 518 sel 0;
#X msg 697 548 0;
#X obj 731 560 * 8;
#X floatatom 679 471 5 0 0 0 - - -, f 5;
#X obj 679 490 max 0;
#X obj 731 538 + 1528;
#X obj 697 514 sel 0;
#X msg 697 587 1 \$1;
#X msg 780 550 0;
#X obj 814 562 * 8;
#X floatatom 790 466 5 0 0 0 - - -, f 5;
#X obj 814 540 + 1528;
#X obj 780 516 sel 0;
#X msg 780 589 2 \$1;
#X obj 780 494 clip 0 20;
#X obj 593 496 clip 0 35;
#X obj 247 66 route 0 1;
#X obj 272 113 tgl 50 0 empty empty empty 17 7 0 10 -257985 -1 -1 0
1;
#X floatatom 720 466 5 0 0 0 - - -, f 5;
#X obj 719 487 min 0;
#X obj 344 356 tgl 15 0 empty empty empty 17 7 0 10 -262144 -1 -1 0
1;
#X obj 346 431 metro 22;
#X obj 346 497 del 12;
#X obj 344 328 r phone-sonne;
#X obj 272 92 == 0;
#X obj 272 169 s mouvement;
#X obj 247 242 s phone-decroche;
#X obj 771 424 r horloge-carillon;
#X obj 771 445 * 20;
#X obj 751 322 * 150;
#X obj 751 301 r horloge-aiguilles;
#X obj 505 146 route s;
#X obj 505 168 route 0 1;
#X obj 505 124 fruit/receive horloge;
#X obj 530 256 tgl 15 0 empty empty empty 17 7 0 10 -262144 -1 -1 0
1;
#X obj 605 307 sel 1;
#X msg 609 363 0;
#X obj 507 222 change;
#X obj 505 200 tgl 15 0 empty empty empty 17 7 0 10 -262144 -1 -1 0
1;
#X msg 723 435 -50;
#X obj 605 337 del 10;
#X obj 681 339 del 10000;
#X msg 679 376 0;
#X obj 686 310 t b f;
#X msg 682 284 -20;
#X msg 724 281 -11;
#X msg 726 258 11;
#X msg 677 444 100;
#X obj 221 712 dac~;
#X obj 205 633 readsf~;
#X msg 208 608 open wavs/Son_téléphone_Régina.wav \, 1;
#X msg 278 635 open wavs/son_telephone_Madelain.wav \, 1;
#X obj 21 17 declare -stdpath Fraise;
#X obj 24 214 declare -lib iemlib;
#X obj 221 659 iemlib/hp4_butt~ 400;
#X obj 222 681 iemlib/lp4_butt~ 4000;
#X connect 1 0 8 0;
#X connect 2 0 1 0;
#X connect 3 0 4 0;
#X connect 4 0 8 0;
#X connect 5 0 2 0;
#X connect 5 0 3 0;
#X connect 7 0 20 0;
#X connect 9 0 10 0;
#X connect 10 0 56 0;
#X connect 10 1 13 0;
#X connect 11 0 12 0;
#X connect 12 0 4 0;
#X connect 13 0 14 0;
#X connect 14 0 12 0;
#X connect 15 0 55 0;
#X connect 16 0 55 1;
#X connect 17 0 56 1;
#X connect 18 0 19 0;
#X connect 19 0 8 0;
#X connect 20 0 50 0;
#X connect 21 0 60 0;
#X connect 22 0 8 0;
#X connect 23 0 15 0;
#X connect 24 0 25 0;
#X connect 25 0 15 0;
#X connect 27 0 32 0;
#X connect 28 0 27 0;
#X connect 29 0 27 0;
#X connect 30 0 49 0;
#X connect 32 0 31 0;
#X connect 33 0 29 0;
#X connect 34 0 28 0;
#X connect 34 1 33 0;
#X connect 35 0 41 0;
#X connect 36 0 41 0;
#X connect 37 0 38 0;
#X connect 38 0 40 0;
#X connect 39 0 36 0;
#X connect 40 0 35 0;
#X connect 40 1 39 0;
#X connect 41 0 32 0;
#X connect 42 0 47 0;
#X connect 43 0 47 0;
#X connect 44 0 48 0;
#X connect 45 0 43 0;
#X connect 46 0 42 0;
#X connect 46 1 45 0;
#X connect 47 0 32 0;
#X connect 48 0 46 0;
#X connect 49 0 34 0;
#X connect 50 0 21 0;
#X connect 50 1 58 0;
#X connect 51 0 59 0;
#X connect 52 0 53 0;
#X connect 53 0 40 0;
#X connect 54 0 23 0;
#X connect 54 0 24 0;
#X connect 55 0 9 0;
#X connect 56 0 11 0;
#X connect 57 0 54 0;
#X connect 58 0 51 0;
#X connect 61 0 62 0;
#X connect 62 0 48 0;
#X connect 64 0 63 0;
#X connect 65 0 66 0;
#X connect 66 0 72 0;
#X connect 67 0 65 0;
#X connect 68 0 69 0;
#X connect 69 0 74 0;
#X connect 70 0 37 0;
#X connect 70 0 52 0;
#X connect 71 0 68 0;
#X connect 72 0 71 0;
#X connect 73 0 52 0;
#X connect 74 0 70 0;
#X connect 75 0 76 0;
#X connect 76 0 52 0;
#X connect 77 0 75 0;
#X connect 77 1 40 0;
#X connect 78 0 77 0;
#X connect 79 0 77 0;
#X connect 80 0 77 0;
#X connect 81 0 37 0;
#X connect 83 0 88 0;
#X connect 84 0 83 0;
#X connect 85 0 83 0;
#X connect 88 0 89 0;
#X connect 89 0 82 0;
