#N canvas 1 92 450 349 10;
#X obj 162 90 s horlogeGotoReset;
#X obj 123 119 s horloge-minuit+;
#X obj 124 197 r horloge-minuit+-done;
#X obj 185 155 r horlogeGotoReset;
#X obj 124 221 spigot;
#X msg 185 177 0;
#X obj 123 46 inlet;
#X obj 123 68 t b b b;
#X msg 157 177 1;
#X obj 124 244 list prepend \$1 \$2;
#X obj 124 292 s seq-conduite-line;
#X obj 184 223 tgl 15 0 empty empty empty 17 7 0 10 -262144 -1 -1 0
1;
#X msg 124 270 aiguilles \$1 \$2;
#X obj 339 46 inlet;
#X connect 2 0 4 0;
#X connect 3 0 5 0;
#X connect 4 0 9 0;
#X connect 5 0 4 1;
#X connect 5 0 11 0;
#X connect 6 0 7 0;
#X connect 7 0 1 0;
#X connect 7 1 8 0;
#X connect 7 2 0 0;
#X connect 8 0 4 1;
#X connect 8 0 11 0;
#X connect 9 0 12 0;
#X connect 12 0 10 0;
#X connect 13 0 9 1;
