#N canvas 65 112 407 383 10;
#X obj 76 37 inlet;
#X obj 105 342 s phone-sonne;
#X msg 129 195 0;
#X obj 76 105 bng 15 250 50 0 empty empty empty 17 7 0 10 -262144 -1
-1;
#X msg 64 186 1;
#X obj 105 321 tgl 15 0 empty empty empty 17 7 0 10 -262144 -1 -1 0
1;
#X obj 244 87 r phone-decroche;
#X obj 244 110 spigot;
#X obj 244 135 sel 1;
#X msg 244 221 0;
#X msg 205 218 stop;
#X obj 97 166 t b b;
#X obj 149 278 outlet no;
#X obj 302 277 outlet yes;
#X obj 244 155 t b b;
#X obj 162 51 r phonecall-reset;
#X obj 76 65 t b b;
#X obj 103 87 s phonecall-reset;
#X obj 227 194 b;
#X obj 97 145 del \$1;
#X connect 0 0 16 0;
#X connect 2 0 5 0;
#X connect 3 0 4 0;
#X connect 3 0 19 0;
#X connect 4 0 5 0;
#X connect 5 0 1 0;
#X connect 5 0 7 1;
#X connect 6 0 7 0;
#X connect 7 0 8 0;
#X connect 8 0 14 0;
#X connect 9 0 5 0;
#X connect 10 0 19 0;
#X connect 11 0 12 0;
#X connect 11 1 2 0;
#X connect 14 0 13 0;
#X connect 14 1 18 0;
#X connect 15 0 18 0;
#X connect 16 0 3 0;
#X connect 16 1 17 0;
#X connect 18 0 9 0;
#X connect 18 0 10 0;
#X connect 19 0 11 0;
#X coords 0 -1 1 1 40 40 1 100 300;
