#N canvas 247 212 597 559 10;
#X obj 38 92 pofhead;
#X floatatom 81 486 5 0 0 0 - - -, f 5;
#X floatatom 126 486 5 0 0 0 - - -, f 5;
#N canvas 65 97 686 620 tests 0;
#X obj 231 102 pofwin;
#N canvas 297 285 450 300 testfullscreen 0;
#X obj 195 102 bng 15 250 50 0 empty empty empty 17 7 0 10 -260097
-1 -1;
#X obj 232 150 t b a;
#X obj 232 174 del 2000;
#X obj 232 218 t a;
#X obj 232 246 outlet;
#X msg 329 68 800 1920;
#X floatatom 355 107 5 0 0 0 - - -, f 5;
#X obj 325 95 +;
#X obj 233 102 bng 15 250 50 0 empty empty empty 17 7 0 10 -1 -1 -1
;
#X msg 232 197 window 800 600 0;
#X msg 232 130 pos 1910 0 \, window 800 600 1 \, cursor 0;
#X msg 84 23 pos 1200 0;
#X connect 0 0 10 0;
#X connect 1 1 3 0;
#X connect 2 0 9 0;
#X connect 3 0 4 0;
#X connect 5 0 7 0;
#X connect 7 0 6 0;
#X connect 8 0 9 0;
#X connect 9 0 3 0;
#X connect 10 0 1 0;
#X connect 11 0 3 0;
#X coords 0 -1 1 1 150 20 1 100 100;
#X restore 228 68 pd testfullscreen;
#X obj 303 192 poftranslate -100 -100;
#X obj 303 218 pofrect 100;
#X obj 304 170 pofcolor 1 0 0 1;
#X obj 176 131 t a;
#X obj 170 191 poftranslate -100 100;
#X obj 442 213 pofrect 100;
#X obj 442 187 poftranslate 100 -100;
#X obj 443 166 pofcolor 0 0 1 1;
#X obj 171 169 pofcolor 0 1 0 1;
#X obj 170 217 pofrect 100;
#X msg 98 448 load \$1;
#X obj 98 296 openpanel;
#X obj 64 288 bng 15 250 50 0 empty empty empty 17 7 0 10 -262144 -1
-1;
#X msg 206 492 play \$1;
#X obj 206 467 tgl 15 0 empty empty empty 17 7 0 10 -262144 -1 -1 0
1;
#X msg 98 331 set symbol \$1;
#X msg 98 357 symbol /home/panorama18/Téléchargements/Timecoded_Big_bunny_1.mov
;
#X msg 206 575 speed \$1;
#X obj 214 553 hsl 128 15 0 2 0 0 empty empty empty -2 -8 0 10 -262144
-1 -1 0 1;
#X msg 227 523 1;
#X msg 194 526 0;
#X msg 208 304 symbol /home/panorama18/Téléchargements/SEQ2B-Installation.mov
;
#X msg 349 550 goto \$1;
#X floatatom 352 531 5 0 0 0 - - -, f 5;
#X obj 319 472 timer;
#X obj 291 439 bng 15 250 50 0 empty empty empty 17 7 0 10 -262144
-1 -1;
#X floatatom 319 501 8 0 0 0 - - -, f 8;
#X obj 456 364 bng 50 250 50 0 empty empty empty 17 7 0 10 -262144
-1 -1;
#X obj 431 552 metro 100;
#X obj 429 581 i;
#X obj 463 580 + 1;
#X msg 466 495 0;
#X msg 441 518 1;
#X msg 285 481 0;
#X obj 428 607 / 10;
#X obj 390 674 div 60;
#X obj 412 629 t f f;
#X obj 456 667 -;
#X obj 476 643 * 60;
#X floatatom 456 705 5 0 0 0 - - -, f 5;
#X floatatom 390 707 5 0 0 0 - - -, f 5;
#X text 540 504 1'47'';
#X msg 371 505 0;
#X msg 503 523 0;
#X obj 98 692 outlet;
#X connect 2 0 3 0;
#X connect 4 0 2 0;
#X connect 5 0 4 0;
#X connect 5 0 9 0;
#X connect 5 0 10 0;
#X connect 6 0 11 0;
#X connect 8 0 7 0;
#X connect 9 0 8 0;
#X connect 10 0 6 0;
#X connect 12 0 46 0;
#X connect 13 0 17 0;
#X connect 14 0 13 0;
#X connect 15 0 46 0;
#X connect 16 0 15 0;
#X connect 17 0 18 0;
#X connect 18 0 12 0;
#X connect 19 0 46 0;
#X connect 20 0 19 0;
#X connect 21 0 20 0;
#X connect 22 0 20 0;
#X connect 23 0 12 0;
#X connect 24 0 46 0;
#X connect 25 0 24 0;
#X connect 26 0 28 0;
#X connect 27 0 26 0;
#X connect 27 0 21 0;
#X connect 27 0 33 0;
#X connect 27 0 44 0;
#X connect 29 0 26 1;
#X connect 29 0 45 0;
#X connect 30 0 31 0;
#X connect 31 0 32 0;
#X connect 31 0 36 0;
#X connect 32 0 31 1;
#X connect 33 0 31 1;
#X connect 33 0 34 0;
#X connect 34 0 30 0;
#X connect 35 0 30 0;
#X connect 35 0 22 0;
#X connect 36 0 38 0;
#X connect 37 0 40 0;
#X connect 37 0 42 0;
#X connect 38 0 39 0;
#X connect 38 1 37 0;
#X connect 39 0 41 0;
#X connect 40 0 39 1;
#X connect 44 0 25 0;
#X connect 45 0 30 0;
#X restore 72 463 pd tests;
#X obj 354 334 pofwin;
#X obj 38 114 t a a;
#X obj 150 177 poftouch 4000 4000;
#X obj 326 209 route down;
#X obj 326 254 tgl 15 0 empty empty empty 17 7 0 10 -262144 -1 -1 1
1;
#X obj 354 272 sel 0 1;
#X msg 389 224 1;
#X obj 326 231 b;
#X msg 404 162 0;
#X msg 353 136 1;
#X obj 404 203 bng 15 250 50 0 empty empty empty 17 7 0 10 -262144
-1 -1;
#X obj 482 136 r seq-conduite-line;
#X obj 137 357 symbol;
#X obj 137 378 pack s s;
#X obj 182 356 r datasdir;
#X obj 482 160 route tv;
#X msg 401 335 pos 1910 0 \, window 2000 2000 1 \, cursor 0;
#X obj 147 432 print tv;
#X obj 503 62 motex/getenv HOME;
#X obj 503 38 bng 15 250 50 0 empty empty empty 17 7 0 10 -262144 -1
-1;
#X msg 503 84 symbol \$1/Datas;
#X obj 522 35 loadbang;
#X obj 503 106 s datasdir;
#X obj 389 200 del 1000;
#X obj 179 117 tgl 15 0 empty empty empty 17 7 0 10 -262144 -1 -1 0
1;
#X obj 150 154 pofcolor 0 0 0 1;
#X msg 94 168 draw 1;
#X obj 94 149 loadbang;
#X msg 237 462 1;
#X msg 52 330 0;
#X msg 52 352 play 0;
#X obj 216 21 bng 15 250 50 0 empty empty empty 17 7 0 10 -262144 -1
-1;
#X obj 235 18 loadbang;
#X obj 216 89 s datasdir;
#X msg 216 67 symbol \$1/../LaChambreDatas;
#X msg 14 181 tv INFO;
#X obj 216 45 ggee/getdir;
#X msg 175 254 listen 61524;
#X obj 175 209 loadbang;
#X obj 52 246 netreceive;
#X obj 68 406 route x y;
#X obj 140 460 route x y;
#X obj 52 307 route stop pre;
#X obj 41 38 # declare -lib pof;
#X obj 338 162 pofbang 1;
#X obj 38 214 pofcolor 1 1 1 0;
#X msg 418 75 \; pd dsp 1;
#X obj 415 50 loadbang;
#X msg 419 457 goto \$1;
#X obj 175 231 del 1500;
#X msg 354 314 pos 1920 0 \, window 640 480 0 \, pos 1920 0 \, cursor
1;
#X obj 30 270 route tv fullscreen translate size play goto win ctl
;
#X msg 308 456 play \$1 \, speed 0;
#X msg 226 503 play 0 \, load \$2/\$1-tv.mp4 \, play 1 \, play 0 \,
speed 0 \, goto 25;
#X obj 38 505 poffilm 830 600;
#X obj 19 431 poftranslate 0 4;
#X msg 213 436 play 1 \, speed 0;
#X msg 136 400 play 0 \, load \$2/mjpeg/\$1-tv.mov \, play 1 \, play
0 \, speed 0;
#X msg 374 294 pos 1920 0 \, window 800 600 1 \, pos 1920 0 \, cursor
0;
#X connect 0 0 5 0;
#X connect 1 0 58 1;
#X connect 2 0 58 2;
#X connect 3 0 58 0;
#X connect 5 0 49 0;
#X connect 5 1 29 0;
#X connect 5 1 48 0;
#X connect 6 1 7 0;
#X connect 7 0 11 0;
#X connect 8 0 9 0;
#X connect 9 0 54 0;
#X connect 9 1 62 0;
#X connect 10 0 8 0;
#X connect 11 0 8 0;
#X connect 12 0 48 0;
#X connect 13 0 48 0;
#X connect 15 0 19 0;
#X connect 16 0 17 0;
#X connect 17 0 61 0;
#X connect 18 0 17 1;
#X connect 20 0 4 0;
#X connect 22 0 24 0;
#X connect 23 0 22 0;
#X connect 24 0 26 0;
#X connect 27 0 10 0;
#X connect 28 0 29 1;
#X connect 29 0 6 0;
#X connect 30 0 6 0;
#X connect 31 0 30 0;
#X connect 32 0 49 4;
#X connect 33 0 34 0;
#X connect 33 0 49 4;
#X connect 34 0 58 0;
#X connect 35 0 40 0;
#X connect 36 0 40 0;
#X connect 38 0 37 0;
#X connect 39 0 55 0;
#X connect 40 0 38 0;
#X connect 41 0 43 0;
#X connect 42 0 53 0;
#X connect 43 0 55 0;
#X connect 44 0 59 1;
#X connect 44 1 59 2;
#X connect 45 0 58 1;
#X connect 45 1 58 2;
#X connect 46 0 33 0;
#X connect 46 1 16 0;
#X connect 46 2 60 0;
#X connect 48 1 12 0;
#X connect 48 1 14 0;
#X connect 48 1 27 0;
#X connect 49 0 59 0;
#X connect 51 0 50 0;
#X connect 52 0 58 0;
#X connect 53 0 41 0;
#X connect 54 0 4 0;
#X connect 55 0 46 0;
#X connect 55 1 8 0;
#X connect 55 2 44 0;
#X connect 55 3 45 0;
#X connect 55 4 56 0;
#X connect 55 5 52 0;
#X connect 55 6 4 0;
#X connect 55 7 58 0;
#X connect 56 0 58 0;
#X connect 59 0 58 0;
#X connect 60 0 32 0;
#X connect 60 0 58 0;
#X connect 61 0 21 0;
#X connect 61 0 58 0;
#X connect 62 0 4 0;
