#N canvas 639 117 660 760 10;
#X declare -lib pof;
#X obj 231 102 pofwin;
#X obj 38 92 pofhead;
#X msg 98 395 load \$1;
#X obj 98 243 openpanel;
#X obj 64 235 bng 15 250 50 0 empty empty empty 17 7 0 10 -262144 -1
-1;
#X msg 236 418 play \$1;
#X obj 236 393 tgl 15 0 empty empty empty 17 7 0 10 -262144 -1 -1 1
1;
#X msg 98 278 set symbol \$1;
#X msg 98 304 symbol /home/panorama18/Téléchargements/Timecoded_Big_bunny_1.mov
;
#X msg 236 501 speed \$1;
#X obj 244 479 hsl 128 15 0 2 0 0 empty empty empty -2 -8 0 10 -262144
-1 -1 6350 1;
#X obj 38 134 poftranslate;
#X msg 257 449 1;
#X msg 224 452 0;
#X obj 41 38 declare -lib pof;
#X floatatom 186 564 5 0 0 0 - - -, f 5;
#X floatatom 266 553 5 0 0 0 - - -, f 5;
#N canvas 1317 161 450 300 testfullscreen 0;
#X obj 195 102 bng 15 250 50 0 empty empty empty 17 7 0 10 -260097
-1 -1;
#X obj 232 150 t b a;
#X obj 232 174 del 2000;
#X obj 232 218 t a;
#X obj 232 246 outlet;
#X msg 329 68 800 1920;
#X floatatom 355 107 5 0 0 0 - - -, f 5;
#X obj 325 95 +;
#X msg 232 130 pos 1920 0 \, window 800 600 1 \, cursor 0;
#X obj 233 102 bng 15 250 50 0 empty empty empty 17 7 0 10 -1 -1 -1
;
#X msg 232 197 window 800 600 0;
#X connect 0 0 8 0;
#X connect 1 1 3 0;
#X connect 2 0 10 0;
#X connect 3 0 4 0;
#X connect 5 0 7 0;
#X connect 7 0 6 0;
#X connect 8 0 1 0;
#X connect 9 0 10 0;
#X connect 10 0 3 0;
#X coords 0 -1 1 1 150 20 1 100 100;
#X restore 228 68 pd testfullscreen;
#X obj 37 602 poffilm 800 600;
#X msg 208 251 symbol /home/panorama18/Téléchargements/SEQ2B-Installation.mov
;
#X msg 379 476 goto \$1;
#X floatatom 382 457 5 0 0 0 - - -, f 5;
#X obj 303 192 poftranslate -100 -100;
#X obj 303 218 pofrect 100;
#X obj 304 170 pofcolor 1 0 0 1;
#X obj 176 131 t a;
#X obj 170 191 poftranslate -100 100;
#X obj 442 213 pofrect 100;
#X obj 442 187 poftranslate 100 -100;
#X obj 443 166 pofcolor 0 0 1 1;
#X obj 171 169 pofcolor 0 1 0 1;
#X obj 170 217 pofrect 100;
#X obj 349 398 timer;
#X obj 321 365 bng 15 250 50 0 empty empty empty 17 7 0 10 -262144
-1 -1;
#X floatatom 349 427 8 0 0 0 - - -, f 8;
#X obj 456 364 bng 50 250 50 0 empty empty empty 17 7 0 10 -262144
-1 -1;
#X obj 431 552 metro 100;
#X obj 429 581 i;
#X obj 463 580 + 1;
#X msg 466 495 0;
#X msg 441 518 1;
#X msg 315 407 0;
#X obj 428 607 / 10;
#X obj 390 674 div 60;
#X obj 412 629 t f f;
#X obj 456 667 -;
#X obj 476 643 * 60;
#X floatatom 456 705 5 0 0 0 - - -, f 5;
#X floatatom 390 707 5 0 0 0 - - -, f 5;
#X text 540 504 1'47'';
#X msg 401 431 0;
#X msg 503 523 0;
#X connect 1 0 11 0;
#X connect 2 0 18 0;
#X connect 3 0 7 0;
#X connect 4 0 3 0;
#X connect 5 0 18 0;
#X connect 6 0 5 0;
#X connect 7 0 8 0;
#X connect 8 0 2 0;
#X connect 9 0 18 0;
#X connect 10 0 9 0;
#X connect 11 0 18 0;
#X connect 12 0 10 0;
#X connect 13 0 10 0;
#X connect 15 0 18 1;
#X connect 16 0 18 2;
#X connect 17 0 0 0;
#X connect 19 0 2 0;
#X connect 20 0 18 0;
#X connect 21 0 20 0;
#X connect 22 0 23 0;
#X connect 24 0 22 0;
#X connect 25 0 24 0;
#X connect 25 0 29 0;
#X connect 25 0 30 0;
#X connect 26 0 31 0;
#X connect 28 0 27 0;
#X connect 29 0 28 0;
#X connect 30 0 26 0;
#X connect 32 0 34 0;
#X connect 33 0 32 0;
#X connect 33 0 12 0;
#X connect 33 0 39 0;
#X connect 33 0 50 0;
#X connect 35 0 32 1;
#X connect 35 0 51 0;
#X connect 36 0 37 0;
#X connect 37 0 38 0;
#X connect 37 0 42 0;
#X connect 38 0 37 1;
#X connect 39 0 37 1;
#X connect 39 0 40 0;
#X connect 40 0 36 0;
#X connect 41 0 36 0;
#X connect 41 0 13 0;
#X connect 42 0 44 0;
#X connect 43 0 46 0;
#X connect 43 0 48 0;
#X connect 44 0 45 0;
#X connect 44 1 43 0;
#X connect 45 0 47 0;
#X connect 46 0 45 1;
#X connect 50 0 21 0;
#X connect 51 0 36 0;
