#N canvas 857 162 416 220 10;
#X obj 11 40 route Fr2;
#X obj 11 61 s Fr2;
#X obj 13 91 r 2Fr2;
#X obj 13 113 list prepend 2Fr2;
#X obj 9 20 r \$1-fromserver;
#X obj 13 136 s \$1-toserver;
#X obj 169 14 r \$1-connected;
#X obj 169 46 tgl 15 0 empty empty empty 17 7 0 10 -262144 -1 -1 0
1;
#X obj 252 119 del 100;
#X msg 252 141 refresh;
#X obj 252 164 s 2Fr2;
#X msg 167 94 1 \, 2 \, 3 \, 4;
#X msg 167 116 \$1 actif 0;
#X obj 168 68 sel 0 1;
#X connect 0 0 1 0;
#X connect 2 0 3 0;
#X connect 3 0 5 0;
#X connect 4 0 0 0;
#X connect 6 0 7 0;
#X connect 7 0 13 0;
#X connect 8 0 9 0;
#X connect 9 0 10 0;
#X connect 11 0 12 0;
#X connect 12 0 1 0;
#X connect 13 0 11 0;
#X connect 13 1 8 0;
#X coords 0 0 1 1 50 50 0;
