#N canvas 797 414 420 377 10;
#X obj 13 165 r Fr2;
#X obj 11 17 r \$1-fromclients;
#X obj 13 210 s \$1-toclients;
#X obj 13 187 list prepend _all_ Fr2;
#X obj 51 105 s 2Fr2;
#X obj 11 40 list split 1;
#X obj 51 83 route 2Fr2;
#X obj 206 129 route actif;
#X obj 188 152 f;
#X obj 245 150 route actif;
#X obj 228 171 f;
#X obj 284 176 route actif;
#X obj 267 199 f;
#X obj 329 197 route actif;
#X obj 312 221 f;
#X obj 214 96 route 1 2 3 4;
#X msg 188 174 1 \$1;
#X msg 227 195 2 $;
#X msg 266 220 3 \$1;
#X msg 312 245 4 $;
#X obj 176 99 b;
#X obj 176 59 route refresh;
#X obj 14 133 print;
#X obj 51 62 list trim;
#X msg 186 310 \$1 actif 0 \, \$1 actif \$2;
#X msg 189 271 \$1 actif \$2;
#X connect 0 0 3 0;
#X connect 0 0 15 0;
#X connect 1 0 5 0;
#X connect 3 0 2 0;
#X connect 5 1 23 0;
#X connect 6 0 4 0;
#X connect 6 0 21 0;
#X connect 7 0 8 1;
#X connect 8 0 16 0;
#X connect 9 0 10 1;
#X connect 10 0 17 0;
#X connect 11 0 12 1;
#X connect 12 0 18 0;
#X connect 13 0 14 1;
#X connect 14 0 19 0;
#X connect 15 0 7 0;
#X connect 15 1 9 0;
#X connect 15 2 11 0;
#X connect 15 3 13 0;
#X connect 16 0 25 0;
#X connect 17 0 25 0;
#X connect 18 0 25 0;
#X connect 19 0 25 0;
#X connect 20 0 8 0;
#X connect 21 0 20 0;
#X connect 23 0 6 0;
#X connect 25 0 3 0;
#X coords 0 0 1 1 50 50 0;
